<svg version="1.1" id="Layer_1" xmlns="http://www.w3.org/2000/svg" xmlns:xlink="http://www.w3.org/1999/xlink" x="0px" y="0px"
	 viewBox="340 150 340 265" xml:space="preserve">
<path fill="#2563eb" opacity="1.000000" stroke="none" 
	d="
M436.156433,330.211426 
	C417.230835,342.949646 397.883484,353.948273 375.333282,357.722626 
	C368.107269,358.932068 360.775726,359.329712 353.453400,358.241577 
	C352.485229,358.097687 351.405243,358.137360 351.020935,356.929626 
	C351.066711,355.629272 352.159027,355.339111 353.017212,354.974213 
	C381.529022,342.850769 405.885681,324.175201 430.421204,305.806793 
	C440.020721,298.620117 449.386414,291.120270 458.833923,283.731537 
	C468.554504,276.129242 477.054565,276.300293 486.023590,284.787201 
	C494.735229,293.030640 503.164398,301.572479 511.735596,309.964935 
	C512.306335,310.523712 513.029480,310.926880 514.110779,311.715302 
	C533.558655,290.629089 552.145142,269.024323 570.558105,246.532959 
	C563.906616,244.140869 557.569519,244.986633 551.757935,243.247864 
	C551.629089,242.765732 551.500305,242.283585 551.371521,241.801453 
	C569.289429,233.731110 587.207336,225.660767 606.457214,216.990494 
	C603.368835,239.106598 600.494324,259.691376 597.619812,280.276154 
	C597.174683,280.359070 596.729614,280.441956 596.284485,280.524872 
	C592.890320,275.074677 592.327332,268.284760 588.703674,261.925537 
	C583.437927,268.500000 578.587585,274.538666 573.755493,280.591980 
	C559.823425,298.045288 545.217285,314.927368 529.733337,331.006836 
	C518.529846,342.641266 509.069733,342.442017 497.510437,331.051666 
	C489.796906,323.450867 482.064636,315.858673 474.637573,307.982758 
	C471.691528,304.858673 469.642303,304.815765 466.426178,307.541931 
	C456.892731,315.623199 446.836792,323.044067 436.156433,330.211426 
z"/>
<path fill="#2563eb" opacity="1.000000" stroke="none" 
	d="
M655.414185,240.308502 
	C635.913757,287.268921 616.270569,333.751984 596.033691,379.982269 
	C594.565979,383.335083 593.095459,386.725830 591.216003,389.852356 
	C584.221436,401.487823 567.246948,401.326172 561.449768,389.125610 
	C553.018494,371.381622 545.461060,353.222656 537.506775,335.251373 
	C536.849609,333.766663 536.581299,332.347687 537.746155,331.059540 
	C543.865295,324.293182 550.013733,317.553406 556.763855,310.131653 
	C564.366516,324.388336 569.107422,339.086945 576.403687,353.754852 
	C579.167786,347.478577 581.603516,342.078186 583.934998,336.633148 
	C599.736694,299.729279 615.565674,262.836853 631.243347,225.880280 
	C633.283386,221.071396 636.447205,217.941284 641.218262,216.079391 
	C649.432617,212.873688 657.807739,210.294785 667.870300,208.329926 
	C664.217834,219.785721 659.530762,229.742523 655.414185,240.308502 
z"/>
<path fill="#2563eb" opacity="1.000000" stroke="none" 
	d="
M402.065613,231.182953 
	C404.031067,224.055084 405.606689,217.229507 407.784912,210.601990 
	C410.734344,201.627930 417.398956,196.763336 426.634857,195.744293 
	C436.738220,194.629547 445.248627,197.539932 450.078125,207.194977 
	C458.790802,224.613235 467.352570,242.107986 475.840240,259.637207 
	C478.660339,265.461487 478.122040,266.671997 472.621033,270.133423 
	C462.662415,276.399750 450.438995,272.749451 445.386963,262.068176 
	C440.922729,252.629669 436.369293,243.233383 431.855225,233.818451 
	C431.394958,233.836823 430.934662,233.855209 430.474396,233.873581 
	C428.760498,240.177353 427.001801,246.469360 425.340973,252.787079 
	C420.182312,272.410858 415.064880,292.045471 409.917542,311.672211 
	C409.448700,313.459961 408.812225,315.188202 407.185333,316.300690 
	C397.016907,323.253967 386.850403,330.210052 376.656921,337.126434 
	C376.157715,337.465149 375.411743,337.440186 373.674408,337.837738 
	C383.213013,301.982910 392.578613,266.778198 402.065613,231.182953 
z"/>
<path fill="#2563eb" opacity="1.000000" stroke="none" 
	d="
M525.229248,232.821655 
	C530.346008,244.628250 535.266663,256.106720 540.358459,267.508759 
	C541.837830,270.821503 541.554382,273.262604 538.895691,275.982330 
	C533.343018,281.662506 528.159607,287.703674 521.959167,294.552338 
	C512.749451,273.766632 503.923126,253.846222 494.530731,232.648148 
	C490.498138,241.800934 487.068451,249.585327 483.751007,257.114929 
	C481.441376,257.010010 481.309631,255.654007 480.848846,254.664429 
	C476.772369,245.909973 472.797546,237.107132 468.620209,228.401367 
	C467.448364,225.959213 467.110901,223.810837 468.332031,221.304001 
	C470.590576,216.667480 472.536621,211.877869 474.823639,207.256317 
	C478.794373,199.232361 485.624268,195.727707 494.316254,195.751526 
	C503.044586,195.775421 509.855591,199.526840 513.741211,207.455521 
	C517.768555,215.673416 521.332031,224.118637 525.229248,232.821655 
z"/>
<path fill="#8b5cf6" opacity="1.000000" stroke="none" 
	d="
M630.796875,202.724731 
	C631.515686,209.262131 629.723938,213.174332 625.287537,215.226013 
	C620.893311,217.258224 616.677307,216.706818 613.256897,213.392838 
	C610.027527,210.263901 609.017151,206.233475 610.785339,201.909225 
	C612.532043,197.637634 615.989502,195.341965 620.466003,195.137680 
	C625.533203,194.906479 628.971741,197.521317 630.796875,202.724731 
z"/>
<path fill="#8b5cf6" opacity="1.000000" stroke="none" 
	d="
M644.119873,184.909210 
	C643.454895,188.660614 641.747131,191.296082 638.319702,192.085403 
	C634.438110,192.979309 631.447571,191.389542 629.812195,187.725250 
	C628.234680,184.190903 629.876831,179.906693 633.512085,177.958145 
	C637.241455,175.959122 640.317993,177.219971 642.641785,180.360962 
	C643.479614,181.493530 643.657104,183.114624 644.119873,184.909210 
z"/>
<path fill="#8b5cf6" opacity="1.000000" stroke="none" 
	d="
M613.535400,185.284912 
	C609.979187,183.780472 608.827637,181.275208 609.607178,177.959412 
	C610.204163,175.420303 612.068054,174.091690 614.585693,173.821625 
	C617.334045,173.526825 619.444580,174.698257 620.682312,177.158844 
	C622.903381,181.574310 619.950806,185.108948 613.535400,185.284912 
z"/>
<path fill="#8b5cf6" opacity="1.000000" stroke="none" 
	d="
M654.585938,171.651794 
	C652.907166,174.261841 650.832153,174.892380 648.421021,173.729477 
	C646.803040,172.949127 646.031128,171.442108 646.380310,169.610703 
	C646.723999,167.807922 647.960876,166.536453 649.700256,166.350937 
	C653.201721,165.977493 654.913208,167.763962 654.585938,171.651794 
z"/>
</svg>